<svg t="1723810958532" class="icon" viewBox="0 0 1024 1024" version="1.1" xmlns="http://www.w3.org/2000/svg" p-id="1928" width="200" height="200"><path d="M469.333333 759.466667c-8.533333 0-17.066667-4.266667-21.333333-8.533334-12.8-12.8-12.8-34.133333 0-46.933333l29.866667-29.866667H298.666667c-17.066667 0-34.133333-12.8-34.133334-34.133333s12.8-34.133333 34.133334-34.133333h179.2l-29.866667-29.866667c-4.266667-4.266667-8.533333-12.8-8.533333-21.333333s4.266667-17.066667 8.533333-21.333334c12.8-12.8 34.133333-12.8 46.933333 0l85.333334 85.333334c4.266667 4.266667 8.533333 12.8 8.533333 21.333333v8.533333c0 4.266667-4.266667 12.8-8.533333 17.066667l-85.333334 85.333333c-8.533333 4.266667-17.066667 8.533333-25.6 8.533334z" fill="#ffffff" p-id="1929"></path><path d="M640 972.8H384c-230.4 0-332.8-98.133333-332.8-332.8V384c0-230.4 98.133333-332.8 332.8-332.8h213.333333c17.066667 0 34.133333 12.8 34.133334 34.133333s-17.066667 34.133333-34.133334 34.133334H384C187.733333 119.466667 119.466667 187.733333 119.466667 384v256c0 196.266667 68.266667 268.8 268.8 268.8h256c196.266667 0 268.8-68.266667 268.8-268.8v-213.333333c0-17.066667 12.8-34.133333 34.133333-34.133334s34.133333 12.8 34.133333 34.133334v213.333333c-8.533333 230.4-110.933333 332.8-341.333333 332.8z" fill="#ffffff" p-id="1930"></path><path d="M938.666667 460.8h-170.666667c-145.066667 0-204.8-55.466667-204.8-204.8V85.333333c0-12.8 8.533333-25.6 21.333333-29.866666 12.8-4.266667 25.6-4.266667 34.133334 8.533333l341.333333 341.333333c8.533333 8.533333 12.8 21.333333 8.533333 34.133334-4.266667 12.8-17.066667 21.333333-29.866666 21.333333z m-307.2-298.666667V256c0 110.933333 29.866667 140.8 140.8 140.8h93.866666l-234.666666-234.666667z" fill="#ffffff" p-id="1931"></path></svg>